<?xml version="1.0" standalone="no"?>
<!DOCTYPE svg PUBLIC "-//W3C//DTD SVG 20010904//EN"
 "http://www.w3.org/TR/2001/REC-SVG-20010904/DTD/svg10.dtd">
<svg version="1.0" xmlns="http://www.w3.org/2000/svg"
 width="419.000000pt" height="595.000000pt" viewBox="0 0 419.000000 595.000000"
 preserveAspectRatio="xMidYMid meet">
<metadata>
Created by potrace 1.16, written by Peter Selinger 2001-2019
</metadata>
<g transform="translate(0.000000,595.000000) scale(0.100000,-0.100000)"
fill="#000000" stroke="none">
<path d="M2395 5449 c-4 -5 -18 -9 -32 -9 -37 0 -22 -11 16 -12 17 -1 28 -4
26 -8 -3 -4 29 -20 70 -35 41 -15 78 -31 81 -36 3 -5 13 -9 22 -9 9 0 28 -9
42 -20 l25 -20 -25 5 c-70 14 -88 20 -120 40 -46 29 -157 66 -176 58 -8 -3
-57 2 -110 12 -65 12 -99 14 -106 7 -7 -7 -3 -12 11 -17 12 -3 19 -11 16 -16
-4 -5 8 -9 25 -9 30 0 79 -20 109 -43 29 -24 123 -48 191 -49 8 -1 20 -4 25
-8 17 -12 96 -29 162 -34 55 -5 119 -30 148 -57 5 -5 17 -9 26 -9 10 0 16 -7
15 -17 0 -11 12 -24 30 -34 31 -15 31 -16 12 -28 -16 -10 -24 -9 -45 4 -14 10
-27 25 -30 35 -5 19 -77 64 -108 67 -68 6 -117 15 -146 27 -52 21 -89 28 -89
16 0 -5 6 -10 14 -10 7 0 19 -7 26 -16 11 -12 2 -10 -40 6 -29 11 -60 20 -69
19 -39 -3 -44 0 -30 18 8 10 9 14 2 10 -6 -4 -14 -3 -18 3 -3 5 -13 10 -21 10
-8 0 -12 -4 -9 -10 12 -20 -8 -9 -68 37 -40 31 -58 41 -53 28 6 -18 6 -18 -12
-2 -12 11 -35 17 -63 17 -97 0 -159 -24 -86 -33 23 -3 19 -4 -18 -6 -65 -2
-123 -22 -117 -40 3 -10 0 -12 -11 -8 -9 3 -21 -1 -27 -9 -11 -12 -5 -14 36
-15 27 -1 52 -1 56 0 5 0 16 -6 25 -15 10 -8 29 -24 43 -35 l25 -20 -30 18
c-23 14 -49 18 -126 17 -86 -1 -102 -4 -143 -28 -25 -15 -45 -32 -43 -38 1 -6
-27 -22 -62 -36 -68 -26 -145 -92 -174 -148 -9 -18 -20 -69 -24 -115 -4 -46
-9 -76 -11 -66 -2 9 -8 15 -13 12 -5 -4 -9 -1 -9 5 0 6 -7 18 -15 26 -8 8 -12
21 -9 29 5 12 -2 15 -30 15 -39 0 -59 -22 -50 -57 3 -11 -1 -25 -10 -32 -9 -8
-16 -22 -16 -32 0 -11 -6 -28 -12 -40 -11 -17 -10 -22 5 -34 15 -11 17 -21 12
-47 -4 -18 -12 -39 -18 -46 -16 -20 -1 -26 32 -13 16 7 40 11 53 9 22 -3 22
-4 -7 -21 l-30 -17 40 6 c40 7 40 7 21 -14 -10 -11 -27 -22 -39 -24 -24 -4
-36 -28 -13 -28 9 0 16 -8 16 -20 0 -11 4 -20 9 -20 5 0 13 9 16 20 4 12 15
20 28 20 23 0 91 49 70 50 -17 0 -4 30 12 30 7 0 15 -6 17 -12 3 -7 13 0 24
17 21 33 103 115 114 115 4 0 17 9 30 20 13 11 29 20 36 20 8 0 34 10 59 22
43 21 47 21 74 5 25 -15 30 -15 41 -2 15 18 37 19 55 3 33 -30 45 -38 55 -38
5 0 10 -4 10 -9 0 -12 99 -78 180 -120 36 -19 72 -39 80 -46 27 -22 46 -27 22
-6 l-23 20 123 -2 c71 -1 126 -6 130 -12 5 -6 8 -5 8 3 0 9 7 11 20 7 14 -5
20 -2 20 9 0 12 10 16 38 16 49 0 165 -25 200 -43 15 -8 44 -22 66 -31 34 -15
38 -15 33 -1 -7 16 8 21 17 6 4 -5 29 -12 56 -16 32 -4 55 -14 63 -26 8 -10
17 -16 20 -12 4 3 7 2 7 -4 0 -6 11 -14 25 -17 14 -4 29 -14 32 -24 4 -9 17
-28 30 -42 12 -13 25 -37 28 -52 4 -15 11 -28 16 -28 7 0 8 -42 5 -112 -11
-231 -11 -253 1 -287 17 -44 16 -149 -1 -220 -20 -80 -26 -131 -16 -131 5 0
13 15 18 33 5 17 15 52 23 77 7 25 19 52 26 61 8 9 18 45 24 80 16 106 60 312
74 349 22 58 46 206 47 293 2 69 -2 91 -24 138 -24 53 -37 126 -43 254 -5 92
-46 204 -100 270 -25 32 -58 76 -72 99 -68 106 -147 175 -223 191 -19 4 -45
14 -57 22 -24 16 -109 14 -107 -2 1 -5 16 -18 35 -27 26 -13 29 -17 14 -18
-11 0 -29 -3 -41 -6 -12 -3 -27 1 -35 8 -18 18 -78 48 -96 48 -7 0 -13 4 -13
9 0 22 -213 61 -225 40z"/>
<path d="M1850 3895 c0 -8 -5 -15 -11 -15 -6 0 -9 -7 -5 -15 6 -17 -7 -19 -35
-5 -28 16 -103 -8 -88 -27 8 -9 23 -11 44 -7 20 3 44 0 61 -9 16 -8 49 -17 74
-21 40 -6 80 -29 80 -46 0 -3 -44 -6 -97 -6 -133 0 -191 -8 -247 -33 -40 -19
-45 -25 -35 -37 10 -12 8 -17 -6 -28 -18 -13 -18 -14 1 -23 10 -5 41 -11 69
-12 27 -2 57 -7 66 -12 9 -4 19 -5 23 -2 3 3 6 1 6 -5 0 -7 13 -12 30 -12 19
0 33 -7 40 -21 9 -16 18 -19 36 -15 14 4 24 2 24 -4 0 -5 9 -10 20 -10 11 0
20 4 20 10 0 6 9 6 23 1 12 -5 25 -9 30 -9 4 0 21 -4 38 -7 17 -4 51 -4 76 0
38 5 44 10 40 26 -5 20 7 26 18 9 3 -6 18 -7 33 -4 21 4 24 3 12 -5 -13 -10
-13 -12 0 -20 34 -22 47 40 28 131 -2 7 5 12 15 12 34 -3 19 44 -30 96 -44 44
-142 97 -193 104 -8 1 -31 7 -50 13 -70 22 -110 25 -110 8z"/>
<path d="M2790 3747 c-3 -3 -30 -7 -60 -10 -81 -7 -101 -19 -150 -84 -23 -32
-53 -69 -66 -83 -20 -22 -28 -47 -25 -74 0 -6 7 -2 14 9 17 22 37 12 37 -20 0
-18 7 -25 30 -30 17 -4 31 -11 31 -16 1 -5 2 -14 3 -20 2 -23 127 -88 182 -95
56 -7 83 0 48 12 -31 11 -96 42 -133 63 l-33 20 28 1 c66 4 260 1 280 -4 19
-5 21 -3 17 17 -3 12 -10 27 -15 34 -7 8 -3 10 13 6 20 -6 22 -4 15 27 -3 19
-7 34 -9 35 -23 19 -90 55 -101 55 -8 0 -17 4 -20 8 -12 20 16 34 74 39 57 4
111 25 110 42 -1 13 -55 45 -94 54 -48 11 -169 21 -176 14z"/>
<path d="M2195 3015 c-5 -1 -36 -8 -67 -15 -32 -7 -58 -17 -58 -21 0 -4 14
-12 30 -18 17 -5 30 -15 30 -22 0 -6 7 -9 14 -6 10 4 13 1 9 -9 -3 -7 0 -14 5
-14 6 0 14 -16 18 -36 6 -31 10 -35 33 -33 14 2 35 -2 46 -8 11 -6 23 -11 28
-12 4 -1 8 -1 10 -2 29 -8 47 -5 62 11 10 11 24 20 32 20 7 0 16 7 19 15 3 8
15 17 27 21 12 4 27 13 35 20 7 8 21 18 30 23 16 9 16 11 -1 28 -25 26 -204
27 -220 2 -10 -16 -12 -15 -30 8 -17 21 -18 26 -6 34 9 5 10 9 2 9 -6 0 -17 2
-25 4 -7 3 -17 3 -23 1z"/>
<path d="M2626 2975 c-3 -8 -1 -17 5 -20 5 -4 25 -31 45 -62 25 -39 32 -59 25
-66 -6 -6 -11 -26 -11 -43 0 -34 14 -52 25 -34 12 19 24 10 27 -20 l3 -30 28
35 c24 30 28 42 22 74 -3 21 -19 52 -35 70 -16 17 -33 37 -37 45 -4 7 -27 25
-50 39 -33 21 -42 23 -47 12z"/>
<path d="M1710 2898 c-27 -29 -26 -38 10 -84 72 -91 92 -114 100 -109 5 3 14
-4 20 -15 6 -11 15 -18 21 -14 5 3 24 -8 41 -25 18 -17 37 -31 44 -31 7 0 14
-4 16 -8 2 -4 43 -23 92 -42 80 -30 99 -34 174 -32 46 1 92 6 101 11 9 4 28 6
44 5 15 -2 27 1 27 7 0 5 9 9 20 9 12 0 33 8 47 17 20 13 27 15 31 5 3 -10 7
-10 18 -1 8 6 11 15 8 20 -3 5 1 9 8 9 14 0 118 88 118 100 0 4 -35 7 -77 7
-97 -2 -210 7 -219 16 -4 4 -22 7 -39 7 -18 0 -52 6 -76 13 -24 8 -50 12 -57
9 -7 -2 -20 -1 -30 3 -19 8 -35 10 -197 23 -60 5 -126 15 -145 21 -19 7 -41
15 -48 17 -10 3 -9 9 4 29 13 20 14 28 4 40 -17 21 -36 19 -60 -7z m253 -170
c12 -6 34 -11 50 -10 15 1 41 -5 57 -13 17 -9 30 -13 30 -11 0 6 76 -19 107
-36 15 -7 53 -9 112 -5 50 3 93 2 96 -3 3 -5 12 -7 20 -3 8 3 15 0 15 -6 0 -6
-7 -11 -15 -11 -9 0 -21 -11 -27 -25 -12 -27 -45 -34 -66 -13 -9 9 -15 9 -24
0 -13 -13 -80 -17 -91 -5 -4 3 -32 7 -63 7 -39 1 -59 6 -68 18 -8 11 -21 14
-38 11 -20 -4 -34 2 -53 21 -22 22 -29 25 -42 14 -12 -10 -18 -9 -29 7 -15 20
-19 57 -7 68 9 9 11 9 36 -5z"/>
<path d="M1043 2615 c-97 -21 -100 -24 -103 -110 0 -16 1 -42 3 -57 3 -19 0
-28 -9 -28 -8 0 -14 -4 -14 -10 0 -5 5 -10 10 -10 7 0 7 -8 -1 -22 -10 -18 -8
-24 7 -36 17 -13 16 -14 -17 -8 -33 6 -36 4 -34 -16 3 -30 -2 -38 -21 -31 -8
3 -13 12 -10 19 3 8 -1 14 -8 14 -8 0 -13 -8 -12 -17 0 -10 -9 -22 -21 -28
-12 -5 -27 -20 -34 -32 -7 -13 -18 -23 -26 -23 -16 0 -18 -27 -2 -32 16 -5
-11 -48 -30 -48 -11 0 -11 -3 -1 -15 14 -17 0 -26 -35 -22 -16 2 -19 -3 -17
-27 2 -19 -4 -36 -19 -52 -28 -30 -37 -30 -45 0 l-6 25 -40 -39 c-23 -21 -53
-40 -67 -42 -19 -2 -27 -10 -29 -27 -3 -18 -6 -21 -12 -11 -7 11 -12 11 -23 2
-7 -7 -16 -10 -19 -7 -3 3 -11 -1 -18 -10 -7 -8 -20 -15 -29 -15 -9 0 -32 -10
-51 -22 -19 -11 -53 -23 -74 -25 -47 -5 -58 -10 -158 -77 l-78 -51 0 -862 0
-863 2095 0 2095 0 0 425 0 426 -42 57 c-24 31 -67 93 -97 137 -77 114 -102
139 -228 222 -115 75 -232 134 -306 154 -70 19 -148 64 -245 142 -132 106
-370 233 -567 302 -100 35 -91 25 -160 179 -21 47 -39 76 -44 70 -5 -5 -19
-47 -30 -94 -24 -93 -62 -212 -72 -220 -7 -6 -43 -81 -63 -132 -8 -21 -20 -38
-25 -38 -6 0 -18 -17 -26 -37 -8 -20 -24 -42 -34 -49 -10 -8 -22 -25 -25 -39
-4 -14 -11 -25 -16 -25 -6 0 -10 -6 -10 -14 0 -8 -7 -16 -15 -20 -8 -3 -18
-24 -21 -47 -4 -23 -15 -50 -24 -59 -11 -11 -21 -42 -25 -81 -4 -35 -10 -68
-13 -74 -12 -19 -11 -40 2 -55 8 -8 17 -25 20 -37 4 -13 11 -23 16 -23 13 0
30 -68 30 -121 0 -44 -21 -102 -41 -114 -5 -4 -9 -15 -9 -26 0 -10 -7 -19 -15
-19 -8 0 -15 -8 -15 -19 0 -22 -51 -36 -62 -18 -22 36 -64 77 -89 87 -28 12
-29 15 -29 76 0 55 -6 76 -40 143 -21 44 -43 81 -48 83 -5 1 -12 19 -16 38 -4
26 -4 29 3 14 7 -16 16 -20 43 -17 18 1 27 0 21 -3 -7 -3 -13 -10 -13 -15 0
-22 48 16 54 42 3 16 11 28 18 27 7 -2 12 5 10 15 -2 9 2 17 8 17 5 0 10 7 10
15 0 18 -12 19 -27 4 -7 -7 -14 -1 -23 20 -10 26 -16 30 -39 25 -53 -12 -62
-16 -58 -27 5 -13 40 -10 45 4 6 16 22 9 22 -10 0 -10 -7 -21 -15 -25 -8 -3
-12 -12 -9 -21 3 -8 2 -15 -4 -15 -6 0 -12 6 -15 13 -3 9 -7 9 -20 -1 -9 -8
-20 -11 -26 -8 -5 4 -11 -1 -13 -11 -2 -14 -7 -11 -22 11 -10 16 -12 25 -5 21
8 -6 10 -4 5 4 -5 7 -14 10 -21 8 -14 -6 -105 82 -105 101 0 7 -4 12 -9 12 -4
0 -18 21 -30 48 -33 70 -45 92 -52 92 -4 0 -5 9 -2 19 3 13 -2 21 -16 26 -12
4 -18 12 -14 21 3 7 0 14 -6 14 -6 0 -21 10 -32 21 -16 16 -18 23 -9 29 9 6 7
10 -6 18 -11 6 -19 22 -19 38 0 22 -6 29 -34 39 -22 7 -30 14 -23 19 20 12 13
26 -14 26 -14 0 -23 4 -19 10 3 6 -1 10 -9 10 -19 0 -21 17 -4 22 8 3 1 17
-20 37 -17 18 -32 38 -32 44 0 7 -15 27 -32 44 -18 18 -40 40 -49 50 -20 23
-89 161 -89 179 0 8 -4 14 -8 14 -12 0 -62 104 -62 128 0 11 8 30 18 43 43 55
108 249 84 249 -6 0 -16 2 -24 4 -7 3 -41 -2 -75 -9z"/>
<path d="M1990 2491 c0 -12 5 -21 11 -21 16 0 103 -81 105 -98 2 -9 -2 -10 -9
-4 -15 11 -47 12 -47 0 0 -4 9 -8 20 -8 11 0 20 -4 20 -10 0 -5 16 -10 35 -10
19 0 35 5 35 10 0 6 7 10 15 10 8 0 15 -5 15 -11 0 -5 5 -7 10 -4 6 4 10 16 8
27 -3 18 3 22 35 24 38 4 80 22 132 58 17 12 32 22 34 23 17 11 -18 12 -81 2
-87 -13 -257 1 -320 26 -14 5 -18 2 -18 -14z"/>
<path d="M1780 2078 c0 -3 11 -18 25 -34 14 -16 25 -33 25 -38 0 -4 7 -6 15
-2 11 4 15 -1 15 -18 0 -14 6 -27 13 -29 6 -3 -1 -6 -18 -7 -18 -2 -23 -4 -12
-7 9 -2 17 -8 17 -13 0 -4 12 -11 27 -15 15 -3 31 -11 34 -17 4 -6 15 -2 28
11 23 23 63 36 86 27 8 -3 15 0 15 7 0 18 57 37 111 37 53 1 167 24 180 37 6
6 -13 9 -48 9 -81 0 -207 9 -218 16 -13 7 -96 19 -155 23 -25 1 -66 6 -92 10
-27 4 -48 5 -48 3z"/>
<path d="M1891 1823 c0 -7 -13 -13 -27 -13 -16 0 -23 -4 -18 -11 8 -13 -97 -8
-128 6 -14 5 -18 2 -18 -14 0 -12 6 -21 15 -21 16 0 20 -12 8 -24 -11 -11 -12
-36 -1 -36 5 0 8 -8 6 -17 -4 -25 10 -43 33 -43 12 0 19 -7 19 -19 0 -21 19
-31 61 -31 16 0 29 -4 29 -8 0 -4 10 -9 22 -9 13 -1 24 -7 26 -13 5 -15 22
-12 22 4 0 8 14 17 30 21 17 4 30 11 30 16 0 6 9 7 20 4 12 -4 20 -2 20 5 0 6
-4 8 -10 5 -17 -10 -11 5 10 27 l20 22 -59 58 c-33 32 -69 58 -80 58 -12 0
-21 8 -24 23 -2 12 -5 16 -6 10z"/>
<path d="M1793 1545 c-15 -17 -17 -55 -3 -55 6 0 10 -7 10 -15 0 -8 7 -15 15
-15 8 0 15 -5 15 -11 0 -7 -10 -9 -25 -5 -16 4 -25 2 -25 -5 0 -7 3 -9 7 -6
10 11 33 -14 33 -37 1 -19 2 -18 16 7 15 28 38 29 27 2 -3 -8 0 -15 6 -15 6 0
11 -7 11 -16 0 -8 5 -12 10 -9 6 4 8 11 5 16 -4 5 1 9 10 9 11 0 16 -8 15 -22
-3 -31 10 -68 22 -68 6 0 8 14 4 33 -9 49 21 81 66 72 22 -4 28 -3 19 3 -11 8
-10 11 6 16 13 4 19 14 18 29 -1 20 -8 22 -55 24 -29 1 -61 5 -69 9 -19 9 -29
11 -59 16 -13 3 -29 15 -35 28 -15 29 -28 33 -44 15z"/>
</g>
</svg>
