<?xml version="1.0" standalone="no"?>
<!DOCTYPE svg PUBLIC "-//W3C//DTD SVG 20010904//EN"
 "http://www.w3.org/TR/2001/REC-SVG-20010904/DTD/svg10.dtd">
<svg version="1.0" xmlns="http://www.w3.org/2000/svg"
 width="419.000000pt" height="595.000000pt" viewBox="0 0 419.000000 595.000000"
 preserveAspectRatio="xMidYMid meet">
<metadata>
Created by potrace 1.16, written by Peter Selinger 2001-2019
</metadata>
<g transform="translate(0.000000,595.000000) scale(0.100000,-0.100000)"
fill="#000000" stroke="none">
<path d="M2423 5425 c-17 -13 -16 -14 10 -24 16 -6 31 -11 33 -11 3 0 38 -14
77 -31 40 -18 85 -32 102 -32 16 0 22 -2 13 -4 -10 -3 -18 -8 -18 -13 0 -9 80
-50 98 -50 16 0 15 -17 0 -22 -12 -4 18 -24 75 -50 16 -8 25 -18 22 -26 -3 -8
3 -16 15 -19 11 -3 20 -9 20 -14 0 -5 3 -8 8 -8 18 3 26 -2 14 -10 -10 -6 -8
-16 10 -47 l23 -39 -62 53 c-34 30 -64 60 -67 67 -9 25 -70 50 -162 66 -28 5
-67 16 -87 24 -20 8 -46 15 -57 15 -19 0 -18 -2 8 -27 15 -16 21 -22 12 -15
-9 6 -24 12 -33 12 -9 0 -18 4 -21 9 -11 16 -59 23 -68 9 -6 -11 -10 -11 -17
1 -6 9 -10 10 -16 2 -4 -8 -21 0 -48 24 -62 53 -65 55 -83 55 -9 0 -31 9 -48
20 -22 13 -45 18 -72 16 -21 -2 -52 -4 -67 -5 -41 -2 -23 -21 21 -22 42 -1 32
-5 -53 -16 l-60 -7 90 -6 c73 -4 96 -9 123 -29 47 -33 32 -38 -24 -7 -48 27
-108 34 -120 15 -3 -6 -29 -10 -58 -8 -73 3 -96 1 -96 -12 0 -7 27 -9 75 -8
41 2 77 0 81 -4 4 -4 -6 -7 -22 -7 -28 -1 -28 -1 15 -27 24 -15 39 -29 32 -31
-7 -2 -21 4 -32 14 -31 28 -191 24 -254 -6 -31 -15 -44 -27 -41 -36 4 -9 -4
-19 -22 -25 -128 -51 -167 -80 -218 -161 -18 -27 -24 -50 -22 -70 3 -16 1 -31
-4 -34 -4 -3 -8 -29 -9 -57 0 -38 -3 -47 -9 -32 -5 11 -9 16 -9 10 -1 -11 -27
29 -37 58 -8 21 -56 23 -73 3 -6 -7 -8 -21 -5 -30 4 -10 -1 -25 -11 -36 -10
-11 -15 -28 -12 -39 3 -12 -1 -22 -9 -25 -17 -7 -19 -36 -1 -36 17 0 42 -41
29 -49 -13 -8 -34 -62 -28 -69 3 -3 12 1 21 8 19 15 75 23 75 10 0 -5 -8 -14
-17 -20 -15 -9 -12 -10 15 -6 43 7 41 -9 -7 -36 -33 -19 -36 -24 -25 -36 8 -7
12 -18 9 -23 -4 -5 -2 -9 3 -9 6 0 12 7 16 15 3 8 15 15 26 15 12 0 33 12 48
26 l27 26 -25 -7 c-25 -8 -25 -8 -6 14 11 11 29 21 40 21 22 0 106 68 106 86
1 9 102 74 117 74 4 0 30 11 56 25 26 14 52 23 58 19 21 -12 59 -11 59 2 0 18
25 8 78 -33 24 -18 48 -30 54 -27 6 4 9 1 6 -7 -5 -15 67 -66 162 -115 64 -32
67 -33 206 -33 107 -1 144 2 153 12 11 14 97 17 117 5 5 -3 32 -9 59 -13 28
-4 61 -14 74 -22 13 -8 35 -19 50 -23 14 -4 35 -11 45 -16 14 -5 17 -4 12 4
-5 8 0 12 13 12 12 0 21 -5 21 -11 0 -8 4 -8 14 0 10 9 15 9 18 1 2 -6 16 -13
32 -14 16 -2 35 -11 41 -20 7 -9 17 -16 24 -16 6 0 11 -4 11 -10 0 -5 8 -10
19 -10 20 0 45 -23 35 -32 -3 -3 8 -20 25 -37 17 -18 31 -40 31 -51 0 -10 6
-20 13 -23 12 -4 13 -92 3 -307 -3 -46 0 -93 5 -103 16 -29 13 -156 -5 -226
-10 -35 -16 -75 -14 -90 3 -20 9 -9 27 47 12 41 31 88 42 105 10 18 19 43 19
56 0 35 59 320 74 361 23 58 47 205 48 293 2 69 -2 91 -24 138 -24 53 -37 126
-43 254 -5 92 -46 204 -100 270 -25 32 -58 76 -72 99 -63 99 -160 186 -209
186 -10 0 -37 9 -60 21 -43 20 -110 23 -108 4 1 -5 13 -16 28 -23 27 -14 37
-36 11 -26 -8 4 -15 1 -15 -5 0 -6 4 -11 9 -11 22 0 17 -25 -5 -26 -17 -1 -24
3 -22 14 2 10 -9 18 -32 25 -19 5 -43 17 -53 28 -10 10 -30 22 -45 25 -15 4
-31 9 -36 12 -6 3 -33 5 -60 3 -29 -1 -63 5 -78 13 -22 12 -30 12 -45 1z"/>
<path d="M2125 5420 c-17 -6 -16 -7 6 -13 13 -4 34 -7 47 -7 12 0 22 -6 22
-12 0 -7 18 -22 40 -32 22 -11 40 -23 40 -29 0 -5 6 -7 13 -4 7 3 21 -1 32 -9
10 -8 40 -14 66 -14 26 0 77 -11 114 -25 40 -15 85 -25 109 -24 22 1 56 -1 74
-5 17 -4 32 -5 32 -1 0 3 -15 13 -32 21 -18 8 -40 18 -48 23 -8 5 -35 15 -60
22 -25 7 -54 19 -66 26 -43 27 -149 63 -188 64 -23 0 -73 6 -112 13 -39 7 -79
9 -89 6z"/>
<path d="M1850 3878 c-11 -27 -16 -29 -46 -23 -19 3 -50 3 -71 -1 -33 -6 -35
-8 -18 -20 13 -9 23 -10 36 -3 14 7 29 6 52 -4 17 -8 58 -20 90 -27 31 -7 62
-19 68 -27 6 -7 20 -13 30 -13 21 0 23 -8 11 -28 -7 -10 -15 -10 -37 -2 -37
14 -193 15 -228 1 -16 -6 -41 -11 -57 -11 -16 0 -35 -7 -44 -15 -8 -8 -19 -15
-25 -15 -6 0 -11 -11 -11 -25 0 -14 -5 -25 -12 -25 -31 0 12 -19 52 -23 75 -8
120 -19 120 -28 0 -5 9 -9 21 -9 28 0 61 -19 54 -31 -8 -13 8 -12 22 2 8 8 13
8 17 0 5 -8 13 -8 27 -1 11 6 24 8 29 5 5 -3 8 0 5 7 -8 24 21 49 49 42 32 -8
33 -27 4 -47 -23 -14 -23 -15 20 -27 53 -17 119 -4 114 22 -2 13 4 15 39 11
29 -4 44 -2 50 8 12 20 11 63 -2 76 -17 17 -2 46 20 40 23 -6 22 10 -1 44 -24
35 -74 89 -83 89 -4 0 -36 14 -72 30 -35 17 -69 28 -74 25 -5 -3 -18 -1 -29 5
-11 6 -39 14 -63 19 -42 7 -44 7 -57 -21z"/>
<path d="M2752 3739 c-99 -13 -124 -24 -154 -71 -15 -24 -46 -63 -68 -88 -22
-25 -40 -53 -40 -64 0 -15 3 -16 15 -6 23 19 47 5 39 -25 -5 -19 -2 -25 11
-25 9 0 33 -8 52 -17 30 -14 33 -18 18 -23 -16 -5 -11 -12 27 -38 52 -36 76
-46 131 -56 38 -7 54 9 20 20 -49 16 -132 61 -132 72 -1 8 20 12 74 12 70 0
76 2 87 25 6 13 15 22 20 19 5 -3 4 -12 -2 -19 -15 -18 -5 -22 69 -31 l64 -7
-6 32 c-6 26 -4 31 13 31 23 0 24 1 10 32 -12 26 -66 64 -104 74 -14 3 -30 12
-37 20 -15 19 26 34 93 34 35 0 59 6 80 21 l29 21 -33 23 c-52 35 -167 49
-276 34z"/>
<path d="M2111 2996 l-44 -12 37 -22 c21 -12 41 -20 46 -17 12 8 20 -8 28 -57
7 -39 10 -43 37 -45 17 0 49 -7 72 -13 38 -11 45 -10 68 8 14 11 25 24 23 28
-2 4 13 12 32 17 39 10 90 43 90 59 0 23 -32 34 -83 28 -28 -4 -66 -4 -84 1
-29 6 -36 4 -50 -18 -15 -23 -17 -23 -26 -6 -33 62 -61 71 -146 49z"/>
<path d="M1730 2827 c0 -23 53 -95 79 -108 26 -14 95 -63 119 -86 7 -7 20 -13
28 -13 8 0 14 -4 14 -10 0 -5 6 -10 14 -10 7 0 27 -7 42 -15 16 -8 36 -15 45
-15 8 0 20 -5 27 -12 29 -29 321 -7 362 27 8 7 31 18 51 25 35 12 90 56 118
92 12 16 7 17 -61 18 -40 1 -91 3 -113 4 -22 2 -49 0 -60 -4 -13 -5 -29 -1
-45 10 -26 18 -91 31 -172 35 -41 2 -93 10 -138 22 -8 2 -58 7 -110 12 -52 4
-104 12 -115 18 -35 18 -85 24 -85 10z m275 -103 c22 -3 49 -9 60 -13 11 -5
45 -16 75 -26 30 -10 60 -22 66 -27 15 -11 144 -8 167 4 12 6 23 6 33 -2 7 -7
21 -10 29 -6 9 3 15 0 15 -9 0 -8 -7 -15 -15 -15 -8 0 -21 -13 -30 -30 -18
-34 -31 -37 -57 -13 -16 14 -21 15 -27 4 -10 -16 -91 -17 -101 -1 -4 6 -14 8
-23 4 -25 -9 -107 5 -107 19 0 8 -15 12 -41 12 -37 0 -51 9 -62 40 -2 6 -11 4
-21 -5 -16 -13 -20 -12 -32 5 -8 10 -14 32 -14 48 0 26 3 29 23 23 12 -4 40
-9 62 -12z"/>
<path d="M1043 2614 c-92 -19 -98 -24 -101 -86 -2 -30 2 -66 7 -81 8 -21 8
-27 -3 -27 -18 0 -15 -68 3 -79 22 -14 -12 -44 -39 -36 -19 6 -25 -5 -21 -41
1 -7 -8 -14 -19 -17 -19 -5 -24 3 -21 31 1 6 -3 12 -9 12 -5 0 -10 -4 -10 -9
0 -5 -10 -12 -22 -14 -20 -4 -19 -4 5 -6 17 0 27 -7 27 -16 0 -11 -7 -14 -25
-9 -29 7 -60 -18 -51 -43 4 -8 1 -22 -5 -29 -6 -8 -8 -14 -5 -14 4 0 -7 -13
-23 -29 -20 -20 -37 -28 -50 -24 -18 5 -19 2 -11 -26 7 -26 5 -33 -11 -45 -15
-10 -18 -21 -14 -45 4 -21 2 -30 -5 -26 -5 3 -10 15 -10 26 0 10 -4 19 -8 19
-5 0 -13 9 -18 19 -9 19 -10 19 -37 -5 -15 -13 -23 -24 -18 -24 6 0 11 -4 11
-10 0 -5 -15 -10 -32 -10 -40 0 -53 -8 -62 -37 -8 -24 -14 -27 -54 -23 -13 1
-52 -12 -88 -30 -35 -17 -68 -28 -73 -26 -5 3 -12 -4 -15 -17 -6 -20 -7 -21
-17 -4 -10 16 -14 16 -67 -14 -31 -17 -74 -45 -94 -60 -20 -16 -42 -29 -47
-29 -8 0 -11 -263 -11 -865 l0 -865 2095 0 2095 0 0 425 0 426 -42 57 c-24 31
-67 93 -97 137 -29 44 -68 95 -85 114 -51 55 -249 179 -355 222 -111 44 -111
44 -111 25 0 -8 -7 -17 -16 -20 -12 -4 -14 -1 -9 14 4 13 2 20 -6 20 -7 0 -10
3 -7 6 4 3 -23 21 -58 39 -36 19 -88 55 -116 80 -81 73 -255 180 -232 144 4
-7 1 -10 -7 -7 -8 3 -14 11 -14 19 0 23 -253 143 -355 169 -57 15 -69 25 -93
80 -58 135 -71 160 -82 160 -6 0 -19 -35 -29 -77 -20 -85 -66 -235 -75 -243
-7 -6 -18 -29 -55 -112 -14 -32 -30 -58 -35 -58 -6 0 -11 -6 -11 -14 0 -7 -20
-43 -45 -79 -24 -35 -42 -67 -39 -70 3 -3 -3 -8 -14 -11 -14 -5 -18 -13 -14
-31 2 -15 0 -25 -7 -25 -6 0 -11 -8 -11 -17 0 -9 -8 -26 -19 -37 -20 -23 -44
-146 -35 -186 3 -14 14 -41 25 -61 10 -20 24 -70 30 -110 11 -69 10 -77 -10
-112 -11 -21 -21 -43 -21 -50 0 -17 -68 -87 -85 -87 -8 0 -28 20 -45 44 -18
24 -47 52 -66 62 -33 18 -34 20 -34 81 0 55 -6 73 -42 143 -24 44 -48 80 -54
80 -7 0 -15 11 -18 25 -4 14 -39 58 -79 98 -40 40 -87 95 -104 123 -18 27 -37
54 -42 61 -6 6 -13 23 -17 37 -3 14 -10 26 -15 26 -5 0 -9 9 -9 21 0 12 -8 23
-20 26 -11 3 -20 12 -20 19 0 8 -4 14 -10 14 -5 0 -10 7 -10 15 0 8 -5 15 -11
15 -5 0 -17 16 -25 35 -8 19 -19 35 -25 35 -5 0 -7 5 -4 10 4 6 10 8 15 5 5
-3 11 -1 15 5 3 5 -1 10 -11 10 -24 0 -85 40 -78 51 3 5 -2 12 -10 15 -9 3
-18 21 -22 40 -3 19 -10 34 -14 34 -4 0 -10 8 -14 18 -7 23 -27 53 -51 78 -23
23 -31 35 -78 119 -19 33 -38 70 -42 83 -3 12 -22 46 -41 75 -44 66 -48 105
-15 142 22 24 77 156 86 206 6 33 4 37 -17 41 -13 2 -52 -1 -85 -8z"/>
<path d="M1990 2497 c0 -8 12 -20 27 -28 16 -8 37 -23 48 -35 11 -12 30 -25
43 -29 15 -4 21 -12 18 -21 -3 -8 -9 -21 -12 -30 -5 -12 -2 -15 12 -12 10 1
21 14 24 28 4 15 14 26 25 26 11 1 25 3 30 4 6 1 25 1 44 0 18 -1 36 2 40 7 3
4 22 16 41 26 49 25 75 46 67 53 -4 4 -13 1 -21 -5 -27 -23 -289 -13 -348 13
-31 13 -38 14 -38 3z"/>
<path d="M1800 2069 c0 -14 26 -36 56 -49 12 -5 24 -21 27 -39 4 -18 13 -31
21 -31 8 0 20 -8 25 -17 10 -17 10 -17 11 0 0 14 9 17 49 17 28 0 52 4 56 9 3
6 27 12 53 15 189 23 282 44 191 43 -62 0 -199 10 -229 17 -52 12 -87 17 -140
20 -30 1 -65 8 -77 14 -27 15 -43 15 -43 1z"/>
<path d="M1818 1783 c-16 -3 -28 -11 -28 -19 0 -10 -8 -14 -22 -12 -30 4 -37
-35 -12 -60 17 -16 18 -16 11 1 -11 28 16 20 43 -14 14 -18 33 -39 44 -48 10
-9 24 -21 31 -28 6 -6 18 -13 26 -15 21 -4 79 23 79 37 0 6 11 17 25 23 14 6
25 17 25 23 0 10 -26 37 -65 68 -17 12 -82 20 -91 11 -5 -5 -16 -5 -24 0 -13
8 -12 11 5 24 20 15 20 15 0 14 -11 0 -32 -3 -47 -5z"/>
</g>
</svg>
